<?xml version="1.0" encoding="iso-8859-1"?>
<!-- Generator: Adobe Illustrator 17.1.0, SVG Export Plug-In . SVG Version: 6.00 Build 0)  -->
<!DOCTYPE svg PUBLIC "-//W3C//DTD SVG 1.1//EN" "http://www.w3.org/Graphics/SVG/1.1/DTD/svg11.dtd">
       <svg class="logo" xmlns="http://www.w3.org/2000/svg" viewbox="0 0 640 250">

            <path class="snippet__left-back" d="M 120 165 C 60 170, 0 150, 0 150 V 90 C 0 90, 60 110, 120 100" />

            <path class="snippet__left" d="M 70 65 V 125 C 95 155, 110 165, 120 165 V 115" />

            <path class="snippet__right-back"
                d="M 520 165 C 580 170, 640 150, 640 150 V 90 C 640 90, 580 110, 520 100 " />

            <path class="snippet__right" d="M 570 65 V 125 C 545 155, 530 165, 520 165 V 115" />

            <path class="snippet__center"
                d="M 70 65 L 70 125 C 120 175, 520 175, 570 125 V 65 C 520 125, 120 125, 70 65" />

            <path id="my_path-1" class="line" d="M 0 10 C 100 100, 540 100, 640 10" />
            <path id="my_path-2" class="line" d="M 0 80 C 100 170, 540 170, 640 80" />
            <path id="my_path-3" class="line" d="M 0 150 C 100 240, 540 240, 640 150" />

            <text class="text--1" x="52.5%">
                <textPath class="text1" xmlns:xlink="http://www.w3.org/1999/xlink" xlink:href="#my_path-1">blackjack
                    pays 2 to 1
                </textPath>
            </text>
            <text class="text--2" x="52.5%">
                <textPath class="text2" xmlns:xlink="http://www.w3.org/1999/xlink" xlink:href="#my_path-2">
                    blackjack game
                </textPath>
            </text>
            <text class="text--3" x="52.5%">
                <textPath class="text2" xmlns:xlink="http://www.w3.org/1999/xlink" xlink:href="#my_path-3">
                    try your luck
                </textPath>
            </text>
        </svg>